<svg width="24" height="24" viewBox="0 0 24 24" fill="none" xmlns="http://www.w3.org/2000/svg">
<path d="M5.41941 9.05756C5.94261 8.52236 6.67101 8.48036 7.31061 9.05756L12.0002 13.554L16.6898 9.05756C17.3294 8.48036 18.059 8.52236 18.5786 9.05756C19.1018 9.59156 19.0682 10.494 18.5786 10.9956C18.0914 11.4972 12.9446 16.398 12.9446 16.398C12.822 16.525 12.6752 16.626 12.5127 16.695C12.3502 16.764 12.1755 16.7996 11.999 16.7996C11.8225 16.7996 11.6478 16.764 11.4853 16.695C11.3229 16.626 11.176 16.525 11.0534 16.398C11.0534 16.398 5.90901 11.4972 5.41941 10.9956C4.92861 10.494 4.89621 9.59156 5.41941 9.05756Z" fill="white"/>
</svg>
