<svg width="25" height="24" viewBox="0 0 25 24" fill="none" xmlns="http://www.w3.org/2000/svg">
<path d="M8.83624 19.2993C8.30104 18.7761 8.25904 18.0477 8.83624 17.4081L13.3326 12.7185L8.83624 8.02894C8.25904 7.38934 8.30104 6.65974 8.83624 6.14014C9.37024 5.61694 10.2726 5.65054 10.7742 6.14014C11.2758 6.62734 16.1766 11.7741 16.1766 11.7741C16.3037 11.8967 16.4047 12.0436 16.4737 12.2061C16.5427 12.3685 16.5783 12.5432 16.5783 12.7197C16.5783 12.8963 16.5427 13.071 16.4737 13.2334C16.4047 13.3959 16.3037 13.5428 16.1766 13.6653C16.1766 13.6653 11.2758 18.8097 10.7742 19.2993C10.2726 19.7901 9.37024 19.8225 8.83624 19.2993Z" fill="white"/>
</svg>
