<svg width="24" height="24" viewBox="0 0 24 24" fill="none" xmlns="http://www.w3.org/2000/svg">
<path d="M19.74 7.33018L15.3 2.33018C15.2065 2.22659 15.0924 2.14371 14.9649 2.08688C14.8375 2.03004 14.6995 2.00051 14.56 2.00018H6.56C6.22775 1.99622 5.89797 2.05774 5.5895 2.18124C5.28103 2.30473 4.9999 2.48778 4.76218 2.71993C4.52446 2.95209 4.33479 3.22879 4.20402 3.53425C4.07324 3.8397 4.00392 4.16793 4 4.50018V19.5002C4.00392 19.8324 4.07324 20.1607 4.20402 20.4661C4.33479 20.7716 4.52446 21.0483 4.76218 21.2804C4.9999 21.5126 5.28103 21.6956 5.5895 21.8191C5.89797 21.9426 6.22775 22.0041 6.56 22.0002H17.44C17.7723 22.0041 18.102 21.9426 18.4105 21.8191C18.719 21.6956 19.0001 21.5126 19.2378 21.2804C19.4755 21.0483 19.6652 20.7716 19.796 20.4661C19.9268 20.1607 19.9961 19.8324 20 19.5002V8.00018C19.9994 7.75234 19.9067 7.51358 19.74 7.33018ZM14 15.0002H13V16.0002C13 16.2654 12.8946 16.5198 12.7071 16.7073C12.5196 16.8948 12.2652 17.0002 12 17.0002C11.7348 17.0002 11.4804 16.8948 11.2929 16.7073C11.1054 16.5198 11 16.2654 11 16.0002V15.0002H10C9.73478 15.0002 9.48043 14.8948 9.29289 14.7073C9.10536 14.5198 9 14.2654 9 14.0002C9 13.735 9.10536 13.4806 9.29289 13.2931C9.48043 13.1055 9.73478 13.0002 10 13.0002H11V12.0002C11 11.735 11.1054 11.4806 11.2929 11.2931C11.4804 11.1055 11.7348 11.0002 12 11.0002C12.2652 11.0002 12.5196 11.1055 12.7071 11.2931C12.8946 11.4806 13 11.735 13 12.0002V13.0002H14C14.2652 13.0002 14.5196 13.1055 14.7071 13.2931C14.8946 13.4806 15 13.735 15 14.0002C15 14.2654 14.8946 14.5198 14.7071 14.7073C14.5196 14.8948 14.2652 15.0002 14 15.0002ZM14.71 8.00018C14.5038 7.97988 14.3139 7.87942 14.1811 7.72043C14.0483 7.56144 13.9833 7.35666 14 7.15018V4.00018L17.74 8.00018H14.71Z" fill="#797979"/>
</svg>
