<svg width="20" height="20" viewBox="0 0 20 20" fill="none" xmlns="http://www.w3.org/2000/svg">
<path d="M15.8336 16.6667H4.16691C3.9459 16.6667 3.73394 16.7545 3.57766 16.9108C3.42138 17.0671 3.33358 17.279 3.33358 17.5C3.33358 17.7211 3.42138 17.933 3.57766 18.0893C3.73394 18.2456 3.9459 18.3334 4.16691 18.3334H15.8336C16.0546 18.3334 16.2666 18.2456 16.4228 18.0893C16.5791 17.933 16.6669 17.7211 16.6669 17.5C16.6669 17.279 16.5791 17.0671 16.4228 16.9108C16.2666 16.7545 16.0546 16.6667 15.8336 16.6667ZM4.16691 15H4.24191L7.71691 14.6834C8.09758 14.6455 8.45361 14.4777 8.72525 14.2084L16.2252 6.70838C16.5163 6.40085 16.6737 5.99047 16.6627 5.56716C16.6518 5.14385 16.4735 4.74213 16.1669 4.45004L13.8836 2.16671C13.5856 1.88679 13.1951 1.72618 12.7864 1.71542C12.3776 1.70467 11.9792 1.84452 11.6669 2.10838L4.16691 9.60838C3.89755 9.88001 3.72983 10.236 3.69191 10.6167L3.33358 14.0917C3.32235 14.2138 3.33819 14.3368 3.37996 14.452C3.42174 14.5673 3.48842 14.6719 3.57525 14.7584C3.65311 14.8356 3.74546 14.8967 3.84699 14.9382C3.94852 14.9797 4.05724 15.0007 4.16691 15ZM12.7252 3.33338L15.0002 5.60838L13.3336 7.23338L11.1002 5.00004L12.7252 3.33338Z" fill="#2D2D2D"/>
</svg>
