<svg width="16" height="16" viewBox="0 0 16 16" fill="none" xmlns="http://www.w3.org/2000/svg">
<path d="M9.26643 14.6666C9.12218 14.6666 8.98182 14.6198 8.86643 14.5333L6.19976 12.5C6.11819 12.4372 6.05227 12.3563 6.00716 12.2638C5.96205 12.1713 5.93898 12.0696 5.93976 11.9666V9.78663L2.73976 3.63996C2.68706 3.53824 2.66146 3.42465 2.66544 3.31015C2.66942 3.19565 2.70283 3.08411 2.76247 2.98629C2.8221 2.88847 2.90593 2.80766 3.00588 2.75167C3.10583 2.69568 3.21853 2.66639 3.33309 2.66663H12.6664C12.7821 2.66665 12.8958 2.69678 12.9963 2.75405C13.0969 2.81133 13.1808 2.89378 13.2398 2.99329C13.2983 3.09464 13.3291 3.2096 13.3291 3.32663C13.3291 3.44365 13.2983 3.55861 13.2398 3.65996L9.90643 9.79996V14C9.90729 14.1242 9.87342 14.2462 9.80863 14.3522C9.74384 14.4583 9.65072 14.5441 9.53976 14.6C9.45443 14.6414 9.36124 14.6641 9.26643 14.6666Z" fill="#2D2D2D"/>
</svg>
