<svg width="20" height="20" viewBox="0 0 20 20" fill="none" xmlns="http://www.w3.org/2000/svg">
<path d="M10.0003 1.6665C8.35215 1.6665 6.74099 2.15525 5.37058 3.07092C4.00017 3.9866 2.93206 5.28809 2.30133 6.81081C1.6706 8.33353 1.50558 10.0091 1.82712 11.6256C2.14866 13.2421 2.94234 14.727 4.10777 15.8924C5.27321 17.0578 6.75807 17.8515 8.37458 18.173C9.99109 18.4946 11.6666 18.3296 13.1894 17.6988C14.7121 17.0681 16.0136 16 16.9292 14.6296C17.8449 13.2592 18.3337 11.648 18.3337 9.99984C18.3337 8.90549 18.1181 7.82186 17.6993 6.81081C17.2805 5.79976 16.6667 4.8811 15.8929 4.10728C15.1191 3.33346 14.2004 2.71963 13.1894 2.30084C12.1783 1.88205 11.0947 1.6665 10.0003 1.6665ZM13.5837 8.00817L9.77533 13.0082C9.6977 13.109 9.598 13.1907 9.48388 13.2471C9.36977 13.3034 9.24426 13.3329 9.117 13.3332C8.99042 13.3339 8.86535 13.3057 8.75128 13.2508C8.63721 13.196 8.53714 13.1158 8.45866 13.0165L6.42533 10.4248C6.35803 10.3384 6.30841 10.2395 6.27932 10.1339C6.25022 10.0283 6.24222 9.91794 6.25576 9.80922C6.2693 9.7005 6.30412 9.59551 6.35824 9.50024C6.41236 9.40498 6.48471 9.32131 6.57116 9.254C6.74576 9.11808 6.96721 9.05708 7.18678 9.08443C7.2955 9.09798 7.40049 9.1328 7.49576 9.18692C7.59102 9.24103 7.67469 9.31338 7.742 9.39984L9.10033 11.1332L12.2503 6.9665C12.3171 6.87896 12.4004 6.80541 12.4956 6.75008C12.5908 6.69474 12.6959 6.65869 12.805 6.64399C12.9141 6.62928 13.0251 6.63622 13.1315 6.66439C13.2379 6.69256 13.3378 6.74142 13.4253 6.80817C13.5129 6.87493 13.5864 6.95827 13.6418 7.05345C13.6971 7.14863 13.7331 7.25377 13.7478 7.36288C13.7625 7.47199 13.7556 7.58292 13.7274 7.68935C13.6993 7.79578 13.6504 7.89562 13.5837 7.98317V8.00817Z" fill="#42B999"/>
</svg>
