<svg width="33" height="32" viewBox="0 0 33 32" fill="none" xmlns="http://www.w3.org/2000/svg">
<path d="M26.8202 9.77335L20.9002 3.10668C20.7755 2.96856 20.6233 2.85806 20.4534 2.78228C20.2835 2.7065 20.0996 2.66712 19.9135 2.66668H9.24683C8.80383 2.6614 8.36413 2.74343 7.95283 2.90809C7.54153 3.07275 7.1667 3.31682 6.84974 3.62635C6.53277 3.93589 6.27989 4.30483 6.10552 4.7121C5.93115 5.11938 5.83872 5.55701 5.8335 6.00002V26C5.83872 26.443 5.93115 26.8807 6.10552 27.2879C6.27989 27.6952 6.53277 28.0641 6.84974 28.3737C7.1667 28.6832 7.54153 28.9273 7.95283 29.0919C8.36413 29.2566 8.80383 29.3386 9.24683 29.3333H23.7535C24.1965 29.3386 24.6362 29.2566 25.0475 29.0919C25.4588 28.9273 25.8336 28.6832 26.1506 28.3737C26.4675 28.0641 26.7204 27.6952 26.8948 27.2879C27.0692 26.8807 27.1616 26.443 27.1668 26V10.6667C27.166 10.3362 27.0424 10.0179 26.8202 9.77335ZM19.1668 20H17.8335V21.3334C17.8335 21.687 17.693 22.0261 17.443 22.2762C17.1929 22.5262 16.8538 22.6667 16.5002 22.6667C16.1465 22.6667 15.8074 22.5262 15.5574 22.2762C15.3073 22.0261 15.1668 21.687 15.1668 21.3334V20H13.8335C13.4799 20 13.1407 19.8595 12.8907 19.6095C12.6406 19.3594 12.5002 19.0203 12.5002 18.6667C12.5002 18.3131 12.6406 17.9739 12.8907 17.7239C13.1407 17.4738 13.4799 17.3334 13.8335 17.3334H15.1668V16C15.1668 15.6464 15.3073 15.3073 15.5574 15.0572C15.8074 14.8072 16.1465 14.6667 16.5002 14.6667C16.8538 14.6667 17.1929 14.8072 17.443 15.0572C17.693 15.3073 17.8335 15.6464 17.8335 16V17.3334H19.1668C19.5205 17.3334 19.8596 17.4738 20.1096 17.7239C20.3597 17.9739 20.5002 18.3131 20.5002 18.6667C20.5002 19.0203 20.3597 19.3594 20.1096 19.6095C19.8596 19.8595 19.5205 20 19.1668 20ZM20.1135 10.6667C19.8386 10.6396 19.5854 10.5057 19.4083 10.2937C19.2312 10.0817 19.1445 9.80865 19.1668 9.53335V5.33335L24.1535 10.6667H20.1135Z" fill="#179FB0"/>
</svg>
