<svg width="20" height="20" viewBox="0 0 20 20" fill="none" xmlns="http://www.w3.org/2000/svg">
<path d="M15.8331 16.6667H4.16643C3.94541 16.6667 3.73345 16.7545 3.57717 16.9108C3.42089 17.067 3.33309 17.279 3.33309 17.5C3.33309 17.721 3.42089 17.933 3.57717 18.0893C3.73345 18.2456 3.94541 18.3333 4.16643 18.3333H15.8331C16.0541 18.3333 16.2661 18.2456 16.4223 18.0893C16.5786 17.933 16.6664 17.721 16.6664 17.5C16.6664 17.279 16.5786 17.067 16.4223 16.9108C16.2661 16.7545 16.0541 16.6667 15.8331 16.6667ZM4.16643 15H4.24143L7.71643 14.6833C8.09709 14.6454 8.45312 14.4777 8.72476 14.2083L16.2248 6.70835C16.5159 6.40082 16.6732 5.99044 16.6622 5.56713C16.6513 5.14382 16.473 4.7421 16.1664 4.45001L13.8831 2.16668C13.5851 1.88676 13.1946 1.72615 12.7859 1.71539C12.3772 1.70463 11.9787 1.84449 11.6664 2.10835L4.16643 9.60835C3.89706 9.87998 3.72935 10.236 3.69143 10.6167L3.33309 14.0917C3.32187 14.2137 3.3377 14.3368 3.37948 14.452C3.42125 14.5672 3.48793 14.6718 3.57476 14.7583C3.65263 14.8356 3.74497 14.8967 3.8465 14.9382C3.94804 14.9796 4.05675 15.0006 4.16643 15ZM12.7248 3.33335L14.9998 5.60835L13.3331 7.23335L11.0998 5.00001L12.7248 3.33335Z" fill="white"/>
</svg>
