<svg width="28" height="28" viewBox="0 0 28 28" fill="none" xmlns="http://www.w3.org/2000/svg">
<path d="M13.9999 2.33337C11.6925 2.33337 9.43684 3.01761 7.51827 4.29956C5.5997 5.58151 4.10435 7.4036 3.22133 9.5354C2.33831 11.6672 2.10727 14.013 2.55743 16.2761C3.00759 18.5392 4.11873 20.618 5.75034 22.2496C7.38196 23.8812 9.46076 24.9924 11.7239 25.4425C13.987 25.8927 16.3328 25.6617 18.4646 24.7786C20.5964 23.8956 22.4185 22.4003 23.7004 20.4817C24.9823 18.5631 25.6666 16.3075 25.6666 14C25.6666 12.468 25.3648 10.9509 24.7785 9.5354C24.1922 8.11994 23.3329 6.83381 22.2495 5.75046C21.1662 4.66711 19.88 3.80775 18.4646 3.22145C17.0491 2.63514 15.532 2.33337 13.9999 2.33337ZM19.0166 11.2117L13.6849 18.2117C13.5762 18.3529 13.4367 18.4673 13.2769 18.5462C13.1171 18.625 12.9414 18.6663 12.7633 18.6667C12.586 18.6677 12.411 18.6282 12.2513 18.5514C12.0916 18.4746 11.9515 18.3624 11.8416 18.2234L8.99492 14.595C8.9007 14.474 8.83124 14.3356 8.79051 14.1877C8.74977 14.0398 8.73857 13.8854 8.75752 13.7332C8.77648 13.581 8.82524 13.434 8.901 13.3006C8.97676 13.1672 9.07806 13.0501 9.19909 12.9559C9.44353 12.7656 9.75355 12.6802 10.061 12.7185C10.2132 12.7374 10.3602 12.7862 10.4935 12.8619C10.6269 12.9377 10.744 13.039 10.8383 13.16L12.7399 15.5867L17.1499 9.75337C17.2434 9.63081 17.3601 9.52785 17.4933 9.45037C17.6266 9.3729 17.7738 9.32243 17.9265 9.30185C18.0793 9.28127 18.2346 9.29097 18.3836 9.33041C18.5326 9.36985 18.6724 9.43825 18.7949 9.53171C18.9175 9.62516 19.0204 9.74185 19.0979 9.8751C19.1754 10.0083 19.2259 10.1555 19.2464 10.3083C19.267 10.4611 19.2573 10.6164 19.2179 10.7654C19.1784 10.9144 19.11 11.0541 19.0166 11.1767V11.2117Z" fill="#42B999"/>
</svg>
