<svg width="45" height="44" viewBox="0 0 45 44" fill="none" xmlns="http://www.w3.org/2000/svg">
<path d="M36.6897 13.4384L28.5497 4.27171C28.3783 4.08179 28.169 3.92985 27.9354 3.82565C27.7017 3.72146 27.4488 3.66732 27.193 3.66671H12.5263C11.9172 3.65945 11.3126 3.77224 10.7471 3.99865C10.1816 4.22506 9.66617 4.56065 9.23034 4.98626C8.79452 5.41187 8.4468 5.91916 8.20704 6.47917C7.96728 7.03917 7.84019 7.64092 7.83301 8.25005V35.75C7.84019 36.3592 7.96728 36.9609 8.20704 37.5209C8.4468 38.0809 8.79452 38.5882 9.23034 39.0138C9.66617 39.4394 10.1816 39.775 10.7471 40.0014C11.3126 40.2279 11.9172 40.3406 12.5263 40.3334H32.473C33.0821 40.3406 33.6867 40.2279 34.2523 40.0014C34.8178 39.775 35.3332 39.4394 35.769 39.0138C36.2048 38.5882 36.5525 38.0809 36.7923 37.5209C37.0321 36.9609 37.1592 36.3592 37.1663 35.75V14.6667C37.1652 14.2123 36.9953 13.7746 36.6897 13.4384ZM26.1663 27.5H24.333V29.3334C24.333 29.8196 24.1399 30.2859 23.796 30.6297C23.4522 30.9736 22.9859 31.1667 22.4997 31.1667C22.0134 31.1667 21.5471 30.9736 21.2033 30.6297C20.8595 30.2859 20.6663 29.8196 20.6663 29.3334V27.5H18.833C18.3468 27.5 17.8805 27.3069 17.5366 26.9631C17.1928 26.6193 16.9997 26.1529 16.9997 25.6667C16.9997 25.1805 17.1928 24.7142 17.5366 24.3703C17.8805 24.0265 18.3468 23.8334 18.833 23.8334H20.6663V22C20.6663 21.5138 20.8595 21.0475 21.2033 20.7037C21.5471 20.3599 22.0134 20.1667 22.4997 20.1667C22.9859 20.1667 23.4522 20.3599 23.796 20.7037C24.1399 21.0475 24.333 21.5138 24.333 22V23.8334H26.1663C26.6526 23.8334 27.1189 24.0265 27.4627 24.3703C27.8065 24.7142 27.9997 25.1805 27.9997 25.6667C27.9997 26.1529 27.8065 26.6193 27.4627 26.9631C27.1189 27.3069 26.6526 27.5 26.1663 27.5ZM27.468 14.6667C27.0901 14.6295 26.7418 14.4453 26.4984 14.1538C26.2549 13.8624 26.1357 13.4869 26.1663 13.1084V7.33338L33.023 14.6667H27.468Z" fill="#797979"/>
</svg>
