<svg width="28" height="28" viewBox="0 0 28 28" fill="none" xmlns="http://www.w3.org/2000/svg">
<path d="M13.9997 2.3335C11.6922 2.3335 9.4366 3.01773 7.51803 4.29968C5.59945 5.58163 4.10411 7.40372 3.22109 9.53552C2.33806 11.6673 2.10702 14.0131 2.55718 16.2762C3.00735 18.5393 4.11849 20.6181 5.7501 22.2497C7.38171 23.8814 9.46051 24.9925 11.7236 25.4427C13.9867 25.8928 16.3325 25.6618 18.4643 24.7788C20.5961 23.8957 22.4182 22.4004 23.7002 20.4818C24.9821 18.5632 25.6663 16.3076 25.6663 14.0002C25.6663 12.4681 25.3646 10.951 24.7783 9.53552C24.192 8.12006 23.3326 6.83393 22.2493 5.75058C21.1659 4.66723 19.8798 3.80787 18.4643 3.22157C17.0489 2.63526 15.5318 2.3335 13.9997 2.3335ZM19.0163 11.2118L13.6847 18.2118C13.576 18.353 13.4364 18.4674 13.2767 18.5463C13.1169 18.6252 12.9412 18.6664 12.763 18.6668C12.5858 18.6678 12.4107 18.6284 12.251 18.5515C12.0913 18.4747 11.9512 18.3625 11.8413 18.2235L8.99468 14.5952C8.90046 14.4741 8.83099 14.3357 8.79026 14.1878C8.74953 14.04 8.73832 13.8855 8.75728 13.7333C8.77624 13.5811 8.82499 13.4341 8.90076 13.3007C8.97652 13.1674 9.07781 13.0502 9.19885 12.956C9.44329 12.7657 9.75331 12.6803 10.0607 12.7186C10.2129 12.7376 10.3599 12.7863 10.4933 12.8621C10.6266 12.9378 10.7438 13.0391 10.838 13.1602L12.7397 15.5868L17.1497 9.7535C17.2431 9.63093 17.3598 9.52797 17.4931 9.4505C17.6263 9.37302 17.7735 9.32256 17.9263 9.30197C18.079 9.28139 18.2343 9.29109 18.3833 9.33053C18.5323 9.36997 18.6721 9.43837 18.7947 9.53183C18.9172 9.62529 19.0202 9.74197 19.0977 9.87522C19.1751 10.0085 19.2256 10.1557 19.2462 10.3084C19.2668 10.4612 19.2571 10.6165 19.2176 10.7655C19.1782 10.9145 19.1098 11.0543 19.0163 11.1768V11.2118Z" fill="#418EEF"/>
</svg>
