<svg width="28" height="28" viewBox="0 0 28 28" fill="none" xmlns="http://www.w3.org/2000/svg">
<path d="M14 2.33325C11.6925 2.33325 9.43691 3.01749 7.51833 4.29944C5.59976 5.58139 4.10441 7.40347 3.22139 9.53528C2.33837 11.6671 2.10733 14.0129 2.55749 16.276C3.00765 18.5391 4.11879 20.6179 5.75041 22.2495C7.38202 23.8811 9.46082 24.9923 11.7239 25.4424C13.987 25.8926 16.3328 25.6615 18.4646 24.7785C20.5964 23.8955 22.4185 22.4001 23.7005 20.4816C24.9824 18.563 25.6667 16.3074 25.6667 13.9999C25.6667 12.4678 25.3649 10.9507 24.7786 9.53528C24.1923 8.11981 23.3329 6.83369 22.2496 5.75034C21.1662 4.66699 19.8801 3.80763 18.4646 3.22132C17.0492 2.63502 15.5321 2.33325 14 2.33325ZM14 20.9999C13.7692 20.9999 13.5437 20.9315 13.3518 20.8033C13.16 20.6751 13.0104 20.4929 12.9221 20.2797C12.8338 20.0665 12.8107 19.832 12.8557 19.6056C12.9008 19.3793 13.0119 19.1715 13.175 19.0083C13.3382 18.8451 13.5461 18.734 13.7724 18.689C13.9987 18.644 14.2333 18.6671 14.4464 18.7554C14.6596 18.8437 14.8418 18.9932 14.97 19.1851C15.0982 19.3769 15.1667 19.6025 15.1667 19.8333C15.1667 20.1427 15.0437 20.4394 14.8249 20.6582C14.6061 20.877 14.3094 20.9999 14 20.9999ZM15.1667 14.9799V16.3333C15.1667 16.6427 15.0437 16.9394 14.8249 17.1582C14.6061 17.377 14.3094 17.4999 14 17.4999C13.6906 17.4999 13.3938 17.377 13.175 17.1582C12.9562 16.9394 12.8333 16.6427 12.8333 16.3333V13.9999C12.8333 13.6905 12.9562 13.3938 13.175 13.175C13.3938 12.9562 13.6906 12.8333 14 12.8333C14.3461 12.8333 14.6844 12.7306 14.9722 12.5383C15.26 12.346 15.4843 12.0727 15.6168 11.7529C15.7492 11.4332 15.7839 11.0813 15.7164 10.7418C15.6488 10.4024 15.4822 10.0906 15.2374 9.84581C14.9927 9.60107 14.6809 9.4344 14.3414 9.36688C14.0019 9.29935 13.6501 9.33401 13.3303 9.46646C13.0105 9.59892 12.7372 9.82322 12.5449 10.111C12.3526 10.3988 12.25 10.7371 12.25 11.0833C12.25 11.3927 12.1271 11.6894 11.9083 11.9082C11.6895 12.127 11.3927 12.2499 11.0833 12.2499C10.7739 12.2499 10.4772 12.127 10.2584 11.9082C10.0396 11.6894 9.91665 11.3927 9.91665 11.0833C9.9136 10.3253 10.1216 9.5814 10.5173 8.93492C10.9131 8.28844 11.4809 7.76488 12.1574 7.42284C12.8338 7.0808 13.5921 6.9338 14.3473 6.99828C15.1026 7.06276 15.8249 7.33618 16.4336 7.78794C17.0423 8.2397 17.5132 8.85195 17.7936 9.55616C18.074 10.2604 18.1529 11.0287 18.0214 11.7752C17.8899 12.5217 17.5532 13.2169 17.049 13.7829C16.5448 14.3489 15.893 14.7633 15.1667 14.9799Z" fill="#DEA41E"/>
</svg>
