<svg width="28" height="28" viewBox="0 0 28 28" fill="none" xmlns="http://www.w3.org/2000/svg">
<path fill-rule="evenodd" clip-rule="evenodd" d="M13.9997 25.6668C20.443 25.6668 25.6663 20.4435 25.6663 14.0002C25.6663 7.55684 20.443 2.3335 13.9997 2.3335C7.55635 2.3335 2.33301 7.55684 2.33301 14.0002C2.33301 20.4435 7.55635 25.6668 13.9997 25.6668ZM7.99967 12.8335C7.44739 12.8335 6.99967 13.2812 6.99967 13.8335V14.1668C6.99967 14.7191 7.44739 15.1668 7.99967 15.1668H8.33301C8.88529 15.1668 9.33301 14.7191 9.33301 14.1668V13.8335C9.33301 13.2812 8.88529 12.8335 8.33301 12.8335H7.99967ZM13.833 12.8335C13.2807 12.8335 12.833 13.2812 12.833 13.8335V14.1668C12.833 14.7191 13.2807 15.1668 13.833 15.1668H14.1663C14.7186 15.1668 15.1663 14.7191 15.1663 14.1668V13.8335C15.1663 13.2812 14.7186 12.8335 14.1663 12.8335H13.833ZM18.6663 13.8335C18.6663 13.2812 19.1141 12.8335 19.6663 12.8335H19.9997C20.552 12.8335 20.9997 13.2812 20.9997 13.8335V14.1668C20.9997 14.7191 20.552 15.1668 19.9997 15.1668H19.6663C19.1141 15.1668 18.6663 14.7191 18.6663 14.1668V13.8335Z" fill="#42B999"/>
</svg>
