<svg width="28" height="28" viewBox="0 0 28 28" fill="none" xmlns="http://www.w3.org/2000/svg">
<path d="M14.0002 2.33337C11.6927 2.33337 9.43709 3.01761 7.51852 4.29956C5.59994 5.58151 4.1046 7.4036 3.22157 9.5354C2.33855 11.6672 2.10751 14.013 2.55767 16.2761C3.00783 18.5392 4.11898 20.618 5.75059 22.2496C7.3822 23.8812 9.461 24.9924 11.7241 25.4425C13.9872 25.8927 16.333 25.6617 18.4648 24.7786C20.5966 23.8956 22.4187 22.4003 23.7006 20.4817C24.9826 18.5631 25.6668 16.3075 25.6668 14C25.6668 12.468 25.3651 10.9509 24.7788 9.5354C24.1925 8.11994 23.3331 6.83381 22.2497 5.75046C21.1664 4.66711 19.8803 3.80775 18.4648 3.22145C17.0493 2.63514 15.5323 2.33337 14.0002 2.33337ZM18.6668 15.1667H14.0002C13.6907 15.1667 13.394 15.0438 13.1752 14.825C12.9564 14.6062 12.8335 14.3095 12.8335 14V9.33337C12.8335 9.02395 12.9564 8.72721 13.1752 8.50842C13.394 8.28962 13.6907 8.16671 14.0002 8.16671C14.3096 8.16671 14.6063 8.28962 14.8251 8.50842C15.0439 8.72721 15.1668 9.02395 15.1668 9.33337V12.8334H18.6668C18.9763 12.8334 19.273 12.9563 19.4918 13.1751C19.7106 13.3939 19.8335 13.6906 19.8335 14C19.8335 14.3095 19.7106 14.6062 19.4918 14.825C19.273 15.0438 18.9763 15.1667 18.6668 15.1667Z" fill="#EC5566"/>
</svg>
