<svg width="28" height="28" viewBox="0 0 28 28" fill="none" xmlns="http://www.w3.org/2000/svg">
<path d="M12.833 9.72239H12.0551C11.6426 9.72239 11.2469 9.88627 10.9552 10.178C10.6635 10.4697 10.4996 10.8654 10.4996 11.2779C10.4996 11.6905 10.6635 12.0862 10.9552 12.3779C11.2469 12.6696 11.6426 12.8335 12.0551 12.8335H12.833V9.72239Z" fill="#797979"/>
<path d="M15.1663 15.1668V18.2779H15.944C16.3566 18.2779 16.7522 18.1141 17.044 17.8223C17.3357 17.5306 17.4996 17.1349 17.4996 16.7224C17.4996 16.3098 17.3357 15.9142 17.044 15.6224C16.7522 15.3307 16.3566 15.1668 15.944 15.1668H15.1663Z" fill="#797979"/>
<path fill-rule="evenodd" clip-rule="evenodd" d="M25.6663 14.0002C25.6663 20.4435 20.443 25.6668 13.9997 25.6668C7.55635 25.6668 2.33301 20.4435 2.33301 14.0002C2.33301 7.55684 7.55635 2.3335 13.9997 2.3335C20.443 2.3335 25.6663 7.55684 25.6663 14.0002ZM13.9996 4.66678C14.644 4.66678 15.1663 5.18912 15.1663 5.83345V7.38905H17.8885C18.5328 7.38905 19.0551 7.91139 19.0551 8.55572C19.0551 9.20005 18.5328 9.72239 17.8885 9.72239H15.1663V12.8335H15.944C16.9754 12.8335 17.9646 13.2432 18.6939 13.9725C19.4232 14.7018 19.8329 15.691 19.8329 16.7224C19.8329 17.7538 19.4232 18.7429 18.6939 19.4722C17.9646 20.2016 16.9754 20.6113 15.944 20.6113H15.1663V22.1668C15.1663 22.8111 14.644 23.3335 13.9996 23.3335C13.3553 23.3335 12.833 22.8111 12.833 22.1668V20.6113H9.33291C8.68858 20.6113 8.16625 20.0889 8.16625 19.4446C8.16625 18.8003 8.68858 18.2779 9.33291 18.2779H12.833V15.1668H12.0551C11.0237 15.1668 10.0346 14.7571 9.30528 14.0278C8.57597 13.2985 8.16625 12.3093 8.16625 11.2779C8.16625 10.2465 8.57597 9.25739 9.30528 8.52808C10.0346 7.79877 11.0237 7.38905 12.0551 7.38905H12.833V5.83345C12.833 5.18912 13.3553 4.66678 13.9996 4.66678Z" fill="#797979"/>
</svg>
