<svg width="28" height="28" viewBox="0 0 28 28" fill="none" xmlns="http://www.w3.org/2000/svg">
<mask id="path-1-inside-1_903_1897" fill="white">
<path fill-rule="evenodd" clip-rule="evenodd" d="M13.2029 2.61992C13.603 2.09219 14.3964 2.09219 14.7965 2.61992L16.9761 5.49443C17.1945 5.78238 17.5512 5.93013 17.9092 5.88091L21.483 5.38953C22.1391 5.29932 22.7001 5.86031 22.6099 6.51643L22.1185 10.0902C22.0693 10.4482 22.217 10.8049 22.505 11.0233L25.3795 13.2029C25.9072 13.603 25.9072 14.3964 25.3795 14.7965L22.505 16.9761C22.217 17.1945 22.0693 17.5512 22.1185 17.9092L22.6099 21.483C22.7001 22.1391 22.1391 22.7001 21.483 22.6099L17.9092 22.1185C17.5512 22.0693 17.1945 22.217 16.9761 22.505L14.7965 25.3795C14.3964 25.9072 13.603 25.9072 13.2029 25.3795L11.0233 22.505C10.8049 22.217 10.4482 22.0693 10.0902 22.1185L6.51643 22.6099C5.86031 22.7001 5.29932 22.1391 5.38953 21.483L5.88091 17.9092C5.93013 17.5512 5.78238 17.1945 5.49443 16.9761L2.61992 14.7965C2.09219 14.3964 2.09219 13.603 2.61992 13.2029L5.49443 11.0233C5.78238 10.8049 5.93013 10.4482 5.88091 10.0902L5.38953 6.51643C5.29932 5.86031 5.86031 5.29932 6.51643 5.38953L10.0902 5.88091C10.4482 5.93013 10.8049 5.78238 11.0233 5.49443L13.2029 2.61992ZM14.0003 9.27067C14.5526 9.27067 15.0003 9.71839 15.0003 10.2707V13.9999C15.0003 14.5522 14.5526 14.9999 14.0003 14.9999C13.4481 14.9999 13.0003 14.5522 13.0003 13.9999V10.2707C13.0003 9.71839 13.4481 9.27067 14.0003 9.27067ZM14.0002 18.9729C14.6869 18.9729 15.2437 18.4162 15.2437 17.7294C15.2437 17.0427 14.6869 16.4859 14.0002 16.4859C13.3134 16.4859 12.7566 17.0427 12.7566 17.7294C12.7566 18.4162 13.3134 18.9729 14.0002 18.9729Z"/>
</mask>
<path fill-rule="evenodd" clip-rule="evenodd" d="M13.2029 2.61992C13.603 2.09219 14.3964 2.09219 14.7965 2.61992L16.9761 5.49443C17.1945 5.78238 17.5512 5.93013 17.9092 5.88091L21.483 5.38953C22.1391 5.29932 22.7001 5.86031 22.6099 6.51643L22.1185 10.0902C22.0693 10.4482 22.217 10.8049 22.505 11.0233L25.3795 13.2029C25.9072 13.603 25.9072 14.3964 25.3795 14.7965L22.505 16.9761C22.217 17.1945 22.0693 17.5512 22.1185 17.9092L22.6099 21.483C22.7001 22.1391 22.1391 22.7001 21.483 22.6099L17.9092 22.1185C17.5512 22.0693 17.1945 22.217 16.9761 22.505L14.7965 25.3795C14.3964 25.9072 13.603 25.9072 13.2029 25.3795L11.0233 22.505C10.8049 22.217 10.4482 22.0693 10.0902 22.1185L6.51643 22.6099C5.86031 22.7001 5.29932 22.1391 5.38953 21.483L5.88091 17.9092C5.93013 17.5512 5.78238 17.1945 5.49443 16.9761L2.61992 14.7965C2.09219 14.3964 2.09219 13.603 2.61992 13.2029L5.49443 11.0233C5.78238 10.8049 5.93013 10.4482 5.88091 10.0902L5.38953 6.51643C5.29932 5.86031 5.86031 5.29932 6.51643 5.38953L10.0902 5.88091C10.4482 5.93013 10.8049 5.78238 11.0233 5.49443L13.2029 2.61992ZM14.0003 9.27067C14.5526 9.27067 15.0003 9.71839 15.0003 10.2707V13.9999C15.0003 14.5522 14.5526 14.9999 14.0003 14.9999C13.4481 14.9999 13.0003 14.5522 13.0003 13.9999V10.2707C13.0003 9.71839 13.4481 9.27067 14.0003 9.27067ZM14.0002 18.9729C14.6869 18.9729 15.2437 18.4162 15.2437 17.7294C15.2437 17.0427 14.6869 16.4859 14.0002 16.4859C13.3134 16.4859 12.7566 17.0427 12.7566 17.7294C12.7566 18.4162 13.3134 18.9729 14.0002 18.9729Z" fill="#179FB0"/>
<path d="M14.7965 2.61992L16.3902 1.41152V1.41152L14.7965 2.61992ZM13.2029 2.61992L11.6092 1.41152V1.41152L13.2029 2.61992ZM16.9761 5.49443L18.5698 4.28603L18.5698 4.28603L16.9761 5.49443ZM17.9092 5.88091L17.6367 3.89955L17.9092 5.88091ZM21.483 5.38953L21.7554 7.37089L21.483 5.38953ZM22.6099 6.51643L20.6285 6.244V6.244L22.6099 6.51643ZM22.1185 10.0902L24.0998 10.3626V10.3626L22.1185 10.0902ZM22.505 11.0233L23.7134 9.4296L23.7134 9.42959L22.505 11.0233ZM25.3795 13.2029L24.1711 14.7965L25.3795 13.2029ZM25.3795 14.7965L24.1711 13.2029V13.2029L25.3795 14.7965ZM22.505 16.9761L21.2966 15.3825L21.2966 15.3825L22.505 16.9761ZM22.1185 17.9092L24.0998 17.6367V17.6367L22.1185 17.9092ZM22.6099 21.483L20.6285 21.7554L22.6099 21.483ZM21.483 22.6099L21.7554 20.6285L21.483 22.6099ZM17.9092 22.1185L17.6367 24.0998H17.6367L17.9092 22.1185ZM16.9761 22.505L15.3825 21.2966L15.3825 21.2966L16.9761 22.505ZM14.7965 25.3795L13.2029 24.1711L13.2029 24.1711L14.7965 25.3795ZM13.2029 25.3795L11.6092 26.5879L11.6092 26.5879L13.2029 25.3795ZM11.0233 22.505L12.6169 21.2966L11.0233 22.505ZM10.0902 22.1185L10.3626 24.0998H10.3626L10.0902 22.1185ZM6.51643 22.6099L6.244 20.6285H6.244L6.51643 22.6099ZM5.38953 21.483L7.37089 21.7554L5.38953 21.483ZM5.88091 17.9092L3.89955 17.6367L5.88091 17.9092ZM5.49443 16.9761L6.70283 15.3825L6.70283 15.3825L5.49443 16.9761ZM2.61992 14.7965L1.41152 16.3902L1.41152 16.3902L2.61992 14.7965ZM2.61992 13.2029L1.41152 11.6092H1.41152L2.61992 13.2029ZM5.49443 11.0233L4.28603 9.42959L4.28603 9.4296L5.49443 11.0233ZM5.88091 10.0902L3.89955 10.3626V10.3626L5.88091 10.0902ZM5.38953 6.51643L7.37089 6.244V6.244L5.38953 6.51643ZM6.51643 5.38953L6.244 7.37089H6.244L6.51643 5.38953ZM10.0902 5.88091L10.3626 3.89955L10.0902 5.88091ZM11.0233 5.49443L12.6169 6.70283L12.6169 6.70283L11.0233 5.49443ZM16.3902 1.41152C15.1897 -0.171681 12.8097 -0.171677 11.6092 1.41152L14.7965 3.82832C14.3964 4.35605 13.603 4.35606 13.2029 3.82832L16.3902 1.41152ZM18.5698 4.28603L16.3902 1.41152L13.2029 3.82832L15.3825 6.70283L18.5698 4.28603ZM17.6367 3.89955C17.9947 3.85033 18.3515 3.99808 18.5698 4.28603L15.3825 6.70282C16.0375 7.56668 17.1076 8.00993 18.1816 7.86227L17.6367 3.89955ZM21.2105 3.40817L17.6367 3.89955L18.1816 7.86227L21.7554 7.37089L21.2105 3.40817ZM24.5912 6.78885C24.8618 4.8205 23.1789 3.13754 21.2105 3.40817L21.7554 7.37089C21.0993 7.4611 20.5383 6.90012 20.6285 6.244L24.5912 6.78885ZM24.0998 10.3626L24.5912 6.78885L20.6285 6.244L20.1371 9.81779L24.0998 10.3626ZM23.7134 9.42959C24.0013 9.64793 24.1491 10.0046 24.0998 10.3626L20.1371 9.81779C19.9895 10.8918 20.4327 11.9619 21.2966 12.6169L23.7134 9.42959ZM26.5879 11.6092L23.7134 9.4296L21.2966 12.6169L24.1711 14.7965L26.5879 11.6092ZM26.5879 16.3902C28.1711 15.1897 28.1711 12.8097 26.5879 11.6092L24.1711 14.7965C23.6433 14.3964 23.6433 13.603 24.1711 13.2029L26.5879 16.3902ZM23.7134 18.5698L26.5879 16.3902L24.1711 13.2029L21.2966 15.3825L23.7134 18.5698ZM24.0998 17.6367C24.1491 17.9948 24.0013 18.3515 23.7134 18.5698L21.2966 15.3825C20.4327 16.0375 19.9895 17.1076 20.1371 18.1816L24.0998 17.6367ZM24.5912 21.2105L24.0998 17.6367L20.1371 18.1816L20.6285 21.7554L24.5912 21.2105ZM21.2105 24.5912C23.1789 24.8618 24.8618 23.1789 24.5912 21.2105L20.6285 21.7554C20.5383 21.0993 21.0993 20.5383 21.7554 20.6285L21.2105 24.5912ZM17.6367 24.0998L21.2105 24.5912L21.7554 20.6285L18.1816 20.1371L17.6367 24.0998ZM18.5698 23.7134C18.3514 24.0013 17.9947 24.1491 17.6367 24.0998L18.1816 20.1371C17.1076 19.9895 16.0375 20.4327 15.3825 21.2966L18.5698 23.7134ZM16.3902 26.5879L18.5698 23.7134L15.3825 21.2966L13.2029 24.1711L16.3902 26.5879ZM11.6092 26.5879C12.8097 28.1711 15.1897 28.1711 16.3902 26.5879L13.2029 24.1711C13.603 23.6433 14.3964 23.6433 14.7965 24.1711L11.6092 26.5879ZM9.4296 23.7134L11.6092 26.5879L14.7965 24.1711L12.6169 21.2966L9.4296 23.7134ZM10.3626 24.0998C10.0046 24.1491 9.64793 24.0013 9.4296 23.7134L12.6169 21.2966C11.9619 20.4327 10.8918 19.9895 9.81779 20.1371L10.3626 24.0998ZM6.78885 24.5912L10.3626 24.0998L9.81779 20.1371L6.244 20.6285L6.78885 24.5912ZM3.40817 21.2105C3.13754 23.1789 4.8205 24.8618 6.78885 24.5912L6.244 20.6285C6.90012 20.5383 7.4611 21.0993 7.37089 21.7554L3.40817 21.2105ZM3.89955 17.6367L3.40817 21.2105L7.37089 21.7554L7.86227 18.1816L3.89955 17.6367ZM4.28603 18.5698C3.99808 18.3515 3.85033 17.9947 3.89955 17.6367L7.86227 18.1816C8.00993 17.1076 7.56668 16.0375 6.70283 15.3825L4.28603 18.5698ZM1.41152 16.3902L4.28603 18.5698L6.70283 15.3825L3.82832 13.2029L1.41152 16.3902ZM1.41152 11.6092C-0.171681 12.8097 -0.171677 15.1897 1.41152 16.3902L3.82832 13.2029C4.35605 13.603 4.35606 14.3964 3.82832 14.7965L1.41152 11.6092ZM4.28603 9.4296L1.41152 11.6092L3.82832 14.7965L6.70283 12.6169L4.28603 9.4296ZM3.89955 10.3626C3.85033 10.0046 3.99808 9.64793 4.28603 9.42959L6.70282 12.6169C7.56668 11.9619 8.00993 10.8918 7.86227 9.81779L3.89955 10.3626ZM3.40817 6.78885L3.89955 10.3626L7.86227 9.81779L7.37089 6.244L3.40817 6.78885ZM6.78885 3.40817C4.8205 3.13754 3.13754 4.8205 3.40817 6.78885L7.37089 6.244C7.4611 6.90012 6.90012 7.4611 6.244 7.37089L6.78885 3.40817ZM10.3626 3.89955L6.78885 3.40817L6.244 7.37089L9.81779 7.86227L10.3626 3.89955ZM9.4296 4.28603C9.64794 3.99808 10.0046 3.85033 10.3626 3.89955L9.81779 7.86227C10.8918 8.00993 11.9619 7.56668 12.6169 6.70283L9.4296 4.28603ZM11.6092 1.41152L9.4296 4.28603L12.6169 6.70283L14.7965 3.82832L11.6092 1.41152ZM17.0003 10.2707C17.0003 8.61382 15.6572 7.27067 14.0003 7.27067V11.2707C13.4481 11.2707 13.0003 10.823 13.0003 10.2707H17.0003ZM17.0003 13.9999V10.2707H13.0003V13.9999H17.0003ZM14.0003 16.9999C15.6572 16.9999 17.0003 15.6567 17.0003 13.9999H13.0003C13.0003 13.4476 13.4481 12.9999 14.0003 12.9999V16.9999ZM11.0003 13.9999C11.0003 15.6567 12.3435 16.9999 14.0003 16.9999V12.9999C14.5526 12.9999 15.0003 13.4476 15.0003 13.9999H11.0003ZM11.0003 10.2707V13.9999H15.0003V10.2707H11.0003ZM14.0003 7.27067C12.3435 7.27067 11.0003 8.61382 11.0003 10.2707H15.0003C15.0003 10.823 14.5526 11.2707 14.0003 11.2707V7.27067ZM13.2437 17.7294C13.2437 17.3116 13.5824 16.9729 14.0002 16.9729V20.9729C15.7915 20.9729 17.2437 19.5208 17.2437 17.7294H13.2437ZM14.0002 18.4859C13.5824 18.4859 13.2437 18.1472 13.2437 17.7294H17.2437C17.2437 15.9381 15.7915 14.4859 14.0002 14.4859V18.4859ZM14.7566 17.7294C14.7566 18.1472 14.418 18.4859 14.0002 18.4859V14.4859C12.2088 14.4859 10.7566 15.9381 10.7566 17.7294H14.7566ZM14.0002 16.9729C14.418 16.9729 14.7566 17.3116 14.7566 17.7294H10.7566C10.7566 19.5208 12.2088 20.9729 14.0002 20.9729V16.9729Z" fill="#179FB0" mask="url(#path-1-inside-1_903_1897)"/>
</svg>
