<svg width="28" height="28" viewBox="0 0 28 28" fill="none" xmlns="http://www.w3.org/2000/svg">
<mask id="path-1-inside-1_926_2348" fill="white">
<path fill-rule="evenodd" clip-rule="evenodd" d="M13.2029 2.61998C13.603 2.09225 14.3964 2.09225 14.7965 2.61998L16.9761 5.49449C17.1945 5.78244 17.5512 5.93019 17.9092 5.88097L21.483 5.38959C22.1391 5.29938 22.7001 5.86037 22.6099 6.51649L22.1185 10.0903C22.0693 10.4483 22.217 10.805 22.505 11.0233L25.3795 13.2029C25.9072 13.6031 25.9072 14.3964 25.3795 14.7966L22.505 16.9762C22.217 17.1945 22.0693 17.5512 22.1185 17.9092L22.6099 21.483C22.7001 22.1391 22.1391 22.7001 21.483 22.6099L17.9092 22.1185C17.5512 22.0693 17.1945 22.2171 16.9761 22.505L14.7965 25.3795C14.3964 25.9073 13.603 25.9073 13.2029 25.3795L11.0233 22.505C10.8049 22.2171 10.4482 22.0693 10.0902 22.1185L6.51643 22.6099C5.86031 22.7001 5.29932 22.1391 5.38953 21.483L5.88091 17.9092C5.93013 17.5512 5.78238 17.1945 5.49443 16.9762L2.61992 14.7966C2.09219 14.3964 2.09219 13.6031 2.61992 13.2029L5.49443 11.0233C5.78238 10.805 5.93013 10.4483 5.88091 10.0903L5.38953 6.51649C5.29932 5.86037 5.86031 5.29938 6.51643 5.38959L10.0902 5.88097C10.4482 5.93019 10.8049 5.78244 11.0233 5.49449L13.2029 2.61998ZM14.0003 9.27074C14.5526 9.27074 15.0003 9.71845 15.0003 10.2707V13.9999C15.0003 14.5522 14.5526 14.9999 14.0003 14.9999C13.4481 14.9999 13.0003 14.5522 13.0003 13.9999V10.2707C13.0003 9.71845 13.4481 9.27074 14.0003 9.27074ZM14.0002 18.973C14.6869 18.973 15.2437 18.4163 15.2437 17.7295C15.2437 17.0427 14.6869 16.486 14.0002 16.486C13.3134 16.486 12.7566 17.0427 12.7566 17.7295C12.7566 18.4163 13.3134 18.973 14.0002 18.973Z"/>
</mask>
<path fill-rule="evenodd" clip-rule="evenodd" d="M13.2029 2.61998C13.603 2.09225 14.3964 2.09225 14.7965 2.61998L16.9761 5.49449C17.1945 5.78244 17.5512 5.93019 17.9092 5.88097L21.483 5.38959C22.1391 5.29938 22.7001 5.86037 22.6099 6.51649L22.1185 10.0903C22.0693 10.4483 22.217 10.805 22.505 11.0233L25.3795 13.2029C25.9072 13.6031 25.9072 14.3964 25.3795 14.7966L22.505 16.9762C22.217 17.1945 22.0693 17.5512 22.1185 17.9092L22.6099 21.483C22.7001 22.1391 22.1391 22.7001 21.483 22.6099L17.9092 22.1185C17.5512 22.0693 17.1945 22.2171 16.9761 22.505L14.7965 25.3795C14.3964 25.9073 13.603 25.9073 13.2029 25.3795L11.0233 22.505C10.8049 22.2171 10.4482 22.0693 10.0902 22.1185L6.51643 22.6099C5.86031 22.7001 5.29932 22.1391 5.38953 21.483L5.88091 17.9092C5.93013 17.5512 5.78238 17.1945 5.49443 16.9762L2.61992 14.7966C2.09219 14.3964 2.09219 13.6031 2.61992 13.2029L5.49443 11.0233C5.78238 10.805 5.93013 10.4483 5.88091 10.0903L5.38953 6.51649C5.29932 5.86037 5.86031 5.29938 6.51643 5.38959L10.0902 5.88097C10.4482 5.93019 10.8049 5.78244 11.0233 5.49449L13.2029 2.61998ZM14.0003 9.27074C14.5526 9.27074 15.0003 9.71845 15.0003 10.2707V13.9999C15.0003 14.5522 14.5526 14.9999 14.0003 14.9999C13.4481 14.9999 13.0003 14.5522 13.0003 13.9999V10.2707C13.0003 9.71845 13.4481 9.27074 14.0003 9.27074ZM14.0002 18.973C14.6869 18.973 15.2437 18.4163 15.2437 17.7295C15.2437 17.0427 14.6869 16.486 14.0002 16.486C13.3134 16.486 12.7566 17.0427 12.7566 17.7295C12.7566 18.4163 13.3134 18.973 14.0002 18.973Z" fill="#EC5566"/>
<path d="M14.7965 2.61998L16.3902 1.41158V1.41158L14.7965 2.61998ZM13.2029 2.61998L11.6092 1.41158V1.41158L13.2029 2.61998ZM16.9761 5.49449L18.5698 4.28609L18.5698 4.28609L16.9761 5.49449ZM17.9092 5.88097L17.6367 3.89961L17.9092 5.88097ZM21.483 5.38959L21.7554 7.37095L21.483 5.38959ZM22.6099 6.51649L20.6285 6.24406V6.24406L22.6099 6.51649ZM22.1185 10.0903L24.0998 10.3627V10.3627L22.1185 10.0903ZM22.505 11.0233L23.7134 9.42966L23.7134 9.42965L22.505 11.0233ZM25.3795 13.2029L24.1711 14.7966L25.3795 13.2029ZM25.3795 14.7966L24.1711 13.2029V13.2029L25.3795 14.7966ZM22.505 16.9762L21.2966 15.3825L21.2966 15.3825L22.505 16.9762ZM22.1185 17.9092L24.0998 17.6368V17.6368L22.1185 17.9092ZM22.6099 21.483L20.6285 21.7554L22.6099 21.483ZM21.483 22.6099L21.7554 20.6286L21.483 22.6099ZM17.9092 22.1185L17.6367 24.0999H17.6367L17.9092 22.1185ZM16.9761 22.505L15.3825 21.2966L15.3825 21.2966L16.9761 22.505ZM14.7965 25.3795L13.2029 24.1711L13.2029 24.1711L14.7965 25.3795ZM13.2029 25.3795L11.6092 26.5879L11.6092 26.5879L13.2029 25.3795ZM11.0233 22.505L12.6169 21.2966L11.0233 22.505ZM10.0902 22.1185L10.3626 24.0999H10.3626L10.0902 22.1185ZM6.51643 22.6099L6.244 20.6286H6.244L6.51643 22.6099ZM5.38953 21.483L7.37089 21.7554L5.38953 21.483ZM5.88091 17.9092L3.89955 17.6368L5.88091 17.9092ZM5.49443 16.9762L6.70283 15.3825L6.70283 15.3825L5.49443 16.9762ZM2.61992 14.7966L1.41152 16.3903L1.41152 16.3903L2.61992 14.7966ZM2.61992 13.2029L1.41152 11.6093H1.41152L2.61992 13.2029ZM5.49443 11.0233L4.28603 9.42966L4.28603 9.42966L5.49443 11.0233ZM5.88091 10.0903L3.89955 10.3627V10.3627L5.88091 10.0903ZM5.38953 6.51649L7.37089 6.24406V6.24406L5.38953 6.51649ZM6.51643 5.38959L6.244 7.37095H6.244L6.51643 5.38959ZM10.0902 5.88097L10.3626 3.89961L10.0902 5.88097ZM11.0233 5.49449L12.6169 6.70289L12.6169 6.70289L11.0233 5.49449ZM16.3902 1.41158C15.1897 -0.17162 12.8097 -0.171616 11.6092 1.41158L14.7965 3.82838C14.3964 4.35611 13.603 4.35612 13.2029 3.82838L16.3902 1.41158ZM18.5698 4.28609L16.3902 1.41158L13.2029 3.82838L15.3825 6.70289L18.5698 4.28609ZM17.6367 3.89961C17.9947 3.85039 18.3515 3.99814 18.5698 4.28609L15.3825 6.70289C16.0375 7.56674 17.1076 8.01 18.1816 7.86233L17.6367 3.89961ZM21.2105 3.40824L17.6367 3.89961L18.1816 7.86233L21.7554 7.37095L21.2105 3.40824ZM24.5912 6.78891C24.8618 4.82056 23.1789 3.1376 21.2105 3.40824L21.7554 7.37095C21.0993 7.46117 20.5383 6.90018 20.6285 6.24406L24.5912 6.78891ZM24.0998 10.3627L24.5912 6.78891L20.6285 6.24406L20.1371 9.81785L24.0998 10.3627ZM23.7134 9.42965C24.0013 9.64799 24.1491 10.0047 24.0998 10.3627L20.1371 9.81785C19.9895 10.8919 20.4327 11.962 21.2966 12.617L23.7134 9.42965ZM26.5879 11.6093L23.7134 9.42966L21.2966 12.617L24.1711 14.7966L26.5879 11.6093ZM26.5879 16.3903C28.1711 15.1898 28.1711 12.8097 26.5879 11.6093L24.1711 14.7966C23.6433 14.3964 23.6433 13.6031 24.1711 13.2029L26.5879 16.3903ZM23.7134 18.5699L26.5879 16.3903L24.1711 13.2029L21.2966 15.3825L23.7134 18.5699ZM24.0998 17.6368C24.1491 17.9948 24.0013 18.3515 23.7134 18.5698L21.2966 15.3825C20.4327 16.0375 19.9895 17.1076 20.1371 18.1817L24.0998 17.6368ZM24.5912 21.2106L24.0998 17.6368L20.1371 18.1817L20.6285 21.7554L24.5912 21.2106ZM21.2105 24.5913C23.1789 24.8619 24.8618 23.1789 24.5912 21.2106L20.6285 21.7554C20.5383 21.0993 21.0993 20.5383 21.7554 20.6286L21.2105 24.5913ZM17.6367 24.0999L21.2105 24.5913L21.7554 20.6286L18.1816 20.1372L17.6367 24.0999ZM18.5698 23.7134C18.3514 24.0014 17.9947 24.1491 17.6367 24.0999L18.1816 20.1372C17.1076 19.9895 16.0375 20.4328 15.3825 21.2966L18.5698 23.7134ZM16.3902 26.5879L18.5698 23.7134L15.3825 21.2966L13.2029 24.1711L16.3902 26.5879ZM11.6092 26.5879C12.8097 28.1711 15.1897 28.1711 16.3902 26.5879L13.2029 24.1711C13.603 23.6434 14.3964 23.6434 14.7965 24.1711L11.6092 26.5879ZM9.4296 23.7134L11.6092 26.5879L14.7965 24.1711L12.6169 21.2966L9.4296 23.7134ZM10.3626 24.0999C10.0046 24.1491 9.64793 24.0014 9.4296 23.7134L12.6169 21.2966C11.9619 20.4328 10.8918 19.9895 9.81779 20.1372L10.3626 24.0999ZM6.78885 24.5913L10.3626 24.0999L9.81779 20.1372L6.244 20.6286L6.78885 24.5913ZM3.40817 21.2106C3.13754 23.1789 4.8205 24.8619 6.78885 24.5913L6.244 20.6286C6.90012 20.5383 7.4611 21.0993 7.37089 21.7554L3.40817 21.2106ZM3.89955 17.6368L3.40817 21.2106L7.37089 21.7554L7.86227 18.1817L3.89955 17.6368ZM4.28603 18.5699C3.99808 18.3515 3.85033 17.9948 3.89955 17.6368L7.86227 18.1817C8.00993 17.1077 7.56668 16.0375 6.70283 15.3825L4.28603 18.5699ZM1.41152 16.3903L4.28603 18.5699L6.70283 15.3825L3.82832 13.2029L1.41152 16.3903ZM1.41152 11.6093C-0.171681 12.8097 -0.171677 15.1898 1.41152 16.3903L3.82832 13.2029C4.35605 13.6031 4.35606 14.3964 3.82832 14.7966L1.41152 11.6093ZM4.28603 9.42966L1.41152 11.6093L3.82832 14.7966L6.70283 12.617L4.28603 9.42966ZM3.89955 10.3627C3.85033 10.0047 3.99808 9.648 4.28603 9.42966L6.70282 12.617C7.56668 11.962 8.00993 10.8919 7.86227 9.81785L3.89955 10.3627ZM3.40817 6.78891L3.89955 10.3627L7.86227 9.81785L7.37089 6.24406L3.40817 6.78891ZM6.78885 3.40824C4.8205 3.1376 3.13754 4.82056 3.40817 6.78891L7.37089 6.24406C7.4611 6.90018 6.90012 7.46117 6.244 7.37095L6.78885 3.40824ZM10.3626 3.89961L6.78885 3.40824L6.244 7.37095L9.81779 7.86233L10.3626 3.89961ZM9.4296 4.28609C9.64794 3.99814 10.0046 3.85039 10.3626 3.89961L9.81779 7.86233C10.8918 8.01 11.9619 7.56674 12.6169 6.70289L9.4296 4.28609ZM11.6092 1.41158L9.4296 4.28609L12.6169 6.70289L14.7965 3.82838L11.6092 1.41158ZM17.0003 10.2707C17.0003 8.61388 15.6572 7.27074 14.0003 7.27074V11.2707C13.4481 11.2707 13.0003 10.823 13.0003 10.2707H17.0003ZM17.0003 13.9999V10.2707H13.0003V13.9999H17.0003ZM14.0003 16.9999C15.6572 16.9999 17.0003 15.6568 17.0003 13.9999H13.0003C13.0003 13.4476 13.4481 12.9999 14.0003 12.9999V16.9999ZM11.0003 13.9999C11.0003 15.6568 12.3435 16.9999 14.0003 16.9999V12.9999C14.5526 12.9999 15.0003 13.4476 15.0003 13.9999H11.0003ZM11.0003 10.2707V13.9999H15.0003V10.2707H11.0003ZM14.0003 7.27074C12.3435 7.27074 11.0003 8.61388 11.0003 10.2707H15.0003C15.0003 10.823 14.5526 11.2707 14.0003 11.2707V7.27074ZM13.2437 17.7295C13.2437 17.3117 13.5824 16.973 14.0002 16.973V20.973C15.7915 20.973 17.2437 19.5208 17.2437 17.7295H13.2437ZM14.0002 18.486C13.5824 18.486 13.2437 18.1473 13.2437 17.7295H17.2437C17.2437 15.9381 15.7915 14.486 14.0002 14.486V18.486ZM14.7566 17.7295C14.7566 18.1473 14.418 18.486 14.0002 18.486V14.486C12.2088 14.486 10.7566 15.9381 10.7566 17.7295H14.7566ZM14.0002 16.973C14.418 16.973 14.7566 17.3117 14.7566 17.7295H10.7566C10.7566 19.5208 12.2088 20.973 14.0002 20.973V16.973Z" fill="#EC5566" mask="url(#path-1-inside-1_926_2348)"/>
</svg>
