<svg width="24" height="28" viewBox="0 0 24 28" fill="none" xmlns="http://www.w3.org/2000/svg">
<path d="M23.3604 18.2799L20.9604 15.8666V9.91994C20.9924 7.71171 20.2242 5.56649 18.7979 3.88039C17.3716 2.19429 15.3834 1.08119 13.2004 0.746607C11.9335 0.579763 10.6456 0.685027 9.42256 1.05537C8.19955 1.42572 7.06959 2.05264 6.10806 2.89429C5.14653 3.73594 4.37555 4.77298 3.84657 5.9362C3.31758 7.09942 3.04276 8.36209 3.04042 9.63994V15.8666L0.640423 18.2799C0.338964 18.5864 0.134534 18.975 0.05269 19.397C-0.0291544 19.819 0.015218 20.2558 0.18026 20.6528C0.345302 21.0497 0.62369 21.3892 0.980624 21.6288C1.33756 21.8685 1.7572 21.9975 2.18709 21.9999H6.66709V22.4533C6.72937 23.8069 7.32569 25.0806 8.32539 25.9953C9.32509 26.91 10.6466 27.3912 12.0004 27.3333C13.3542 27.3912 14.6758 26.91 15.6755 25.9953C16.6752 25.0806 17.2715 23.8069 17.3338 22.4533V21.9999H21.8138C22.2436 21.9975 22.6633 21.8685 23.0202 21.6288C23.3772 21.3892 23.6555 21.0497 23.8206 20.6528C23.9856 20.2558 24.03 19.819 23.9482 19.397C23.8663 18.975 23.6619 18.5864 23.3604 18.2799ZM14.6671 22.4533C14.5931 23.0946 14.2746 23.6827 13.7779 24.095C13.2811 24.5073 12.6444 24.7121 12.0004 24.6666C11.3564 24.7121 10.7198 24.5073 10.223 24.095C9.72623 23.6827 9.4077 23.0946 9.33376 22.4533V21.9999H14.6671V22.4533Z" fill="#2D2D2D"/>
</svg>
