<svg width="22" height="15" viewBox="0 0 22 15" fill="none" xmlns="http://www.w3.org/2000/svg">
<path d="M20.8701 7.49999C20.2301 6.38999 16.7101 0.819994 10.7301 0.999994C5.20007 1.13999 2.00007 5.99999 1.13007 7.49999C1.0423 7.65201 0.996094 7.82446 0.996094 7.99999C0.996094 8.17553 1.0423 8.34797 1.13007 8.49999C1.76007 9.58999 5.13007 15 11.0201 15H11.2701C16.8001 14.86 20.0101 9.99999 20.8701 8.49999C20.9578 8.34797 21.004 8.17553 21.004 7.99999C21.004 7.82446 20.9578 7.65201 20.8701 7.49999ZM11.0001 11.5C10.3078 11.5 9.63114 11.2947 9.05557 10.9101C8.48 10.5256 8.0314 9.97893 7.76649 9.33939C7.50158 8.69984 7.43227 7.99611 7.56732 7.31718C7.70237 6.63824 8.03571 6.0146 8.52519 5.52512C9.01468 5.03564 9.63832 4.70229 10.3173 4.56724C10.9962 4.4322 11.6999 4.50151 12.3395 4.76641C12.979 5.03132 13.5256 5.47993 13.9102 6.0555C14.2948 6.63107 14.5001 7.30776 14.5001 7.99999C14.5001 8.92825 14.1313 9.81849 13.4749 10.4749C12.8186 11.1312 11.9283 11.5 11.0001 11.5Z" fill="#797979"/>
</svg>
